<svg width="16" height="19" viewBox="0 0 16 19" fill="none" xmlns="http://www.w3.org/2000/svg">
<g clip-path="url(#clip0_205_45)">
<path d="M13.5723 14.7092V8.32501H12.2422C12.3736 8.73881 12.4393 9.16902 12.4393 9.61565C12.4393 10.4432 12.2291 11.2068 11.8087 11.9063C11.3884 12.6058 10.8169 13.1592 10.0945 13.5664C9.37195 13.9736 8.58378 14.1772 7.72992 14.1772C6.43599 14.1772 5.32926 13.7322 4.40972 12.8423C3.49018 11.9523 3.03041 10.8767 3.03041 9.61565C3.03041 9.16902 3.09609 8.73881 3.22746 8.32501H1.83829V14.7092C1.83829 14.88 1.89576 15.0229 2.01071 15.1378C2.12565 15.2528 2.26851 15.3102 2.43928 15.3102H12.9713C13.1355 15.3102 13.2767 15.2528 13.3949 15.1378C13.5132 15.0229 13.5723 14.88 13.5723 14.7092ZM9.88263 11.5418C9.88263 11.5418 10.0312 11.3981 10.3284 11.1107C10.6256 10.8234 10.7743 10.2725 10.7743 9.45802C10.7743 8.64357 10.477 7.94899 9.88263 7.37427C9.28821 6.79956 8.57064 6.51221 7.72992 6.51221C6.89576 6.51221 6.18148 6.79956 5.58706 7.37427C4.99264 7.94899 4.69544 8.64357 4.69544 9.45802C4.69544 10.2725 4.99264 10.967 5.58706 11.5418C6.18148 12.1165 6.89576 12.4038 7.72992 12.4038C8.57064 12.4038 9.28821 12.1165 9.88263 11.5418ZM13.5723 5.91122V4.2856C13.5723 4.1017 13.5066 3.94242 13.3752 3.80777C13.2439 3.67313 13.083 3.6058 12.8925 3.6058H11.1782C10.9877 3.6058 10.8268 3.67313 10.6954 3.80777C10.5641 3.94242 10.4984 4.1017 10.4984 4.2856V5.91122C10.4984 6.1017 10.5641 6.26262 10.6954 6.39398C10.8268 6.52534 10.9877 6.59102 11.1782 6.59102H12.8925C13.083 6.59102 13.2439 6.52534 13.3752 6.39398C13.5066 6.26262 13.5723 6.1017 13.5723 5.91122ZM15.2866 3.86196V15.1132C15.2866 15.6452 15.0961 16.1017 14.7151 16.4826C14.3342 16.8636 13.8777 17.0541 13.3457 17.0541H2.09445C1.56243 17.0541 1.10595 16.8636 0.724993 16.4826C0.344041 16.1017 0.153564 15.6452 0.153564 15.1132V3.86196C0.153564 3.32994 0.344041 2.87345 0.724993 2.4925C1.10595 2.11155 1.56243 1.92107 2.09445 1.92107H13.3457C13.8777 1.92107 14.3342 2.11155 14.7151 2.4925C15.0961 2.87345 15.2866 3.32994 15.2866 3.86196Z" fill="#FEFEFE"/>
</g>
<defs>
<clipPath id="clip0_205_45">
<rect width="15.89" height="18" fill="white" transform="matrix(1 0 0 -1 0 18.66)"/>
</clipPath>
</defs>
</svg>
